<svg width="88" height="80" viewBox="0 0 88 80" fill="none" xmlns="http://www.w3.org/2000/svg">
<path d="M39.7683 74.3371C58.5531 74.3371 73.7811 59.1091 73.7811 40.3243C73.7811 21.5396 58.5531 6.31152 39.7683 6.31152C20.9835 6.31152 5.75549 21.5396 5.75549 40.3243C5.75549 59.1091 20.9835 74.3371 39.7683 74.3371Z" fill="#00D7FF"/>
<path d="M59.4537 60.0057C70.3235 49.1359 70.3235 31.5125 59.4537 20.6427C48.5839 9.7729 30.9605 9.7729 20.0907 20.6427C9.2209 31.5125 9.2209 49.1359 20.0907 60.0057C30.9605 70.8755 48.5839 70.8755 59.4537 60.0057Z" fill="white"/>
<path d="M39.7682 61.4378C51.4286 61.4378 60.8812 51.9852 60.8812 40.3249C60.8812 28.6645 51.4286 19.2119 39.7682 19.2119C28.1079 19.2119 18.6553 28.6645 18.6553 40.3249C18.6553 51.9852 28.1079 61.4378 39.7682 61.4378Z" fill="#00D7FF"/>
<path d="M50.6093 51.1613C56.5944 45.1761 56.5945 35.4723 50.6093 29.4871C44.6241 23.502 34.9203 23.502 28.9351 29.4871C22.95 35.4723 22.95 45.1761 28.9351 51.1613C34.9203 57.1465 44.6241 57.1465 50.6093 51.1613Z" fill="white"/>
<path d="M47.8734 44.5719C50.2195 40.0979 48.4945 34.569 44.0205 32.2229C39.5464 29.8767 34.0176 31.6017 31.6714 36.0758C29.3253 40.5498 31.0503 46.0787 35.5243 48.4248C39.9984 50.771 45.5272 49.046 47.8734 44.5719Z" fill="#00D7FF"/>
<path d="M40.3625 45.2643C43.0898 44.9391 45.0371 42.4645 44.7119 39.7372C44.3867 37.0099 41.9122 35.0626 39.1848 35.3878C36.4575 35.7129 34.5102 38.1875 34.8354 40.9148C35.1606 43.6421 37.6351 45.5895 40.3625 45.2643Z" fill="white"/>
<path d="M59.3591 31.72L62.3731 19.7997L80.4721 12.0537L76.78 23.4315L87.5851 28.3443L69.8629 36.6629L59.3591 31.72Z" fill="#FF7B00"/>
<path d="M39.1956 42.3895C38.6078 42.1785 38.1105 41.7415 37.8393 41.1236C37.3118 39.9331 37.8393 38.5316 39.0298 38.0042L78.4226 20.3724C79.6131 19.8449 81.0146 20.3724 81.542 21.5629C82.0695 22.7534 81.542 24.1549 80.3515 24.6824L40.9587 42.3141C40.3861 42.5854 39.7532 42.5854 39.1956 42.3895Z" fill="#FF9557"/>
</svg>
